<?xml version="1.0" encoding="UTF-8" standalone="no"?>
<!DOCTYPE svg PUBLIC "-//W3C//DTD SVG 1.1//EN" "http://www.w3.org/Graphics/SVG/1.1/DTD/svg11.dtd">
<svg width="100%" height="100%" viewBox="0 0 1080 1080" version="1.1" xmlns="http://www.w3.org/2000/svg" xmlns:xlink="http://www.w3.org/1999/xlink" xml:space="preserve" style="fill-rule:evenodd;clip-rule:evenodd;stroke-linecap:round;stroke-linejoin:round;stroke-miterlimit:1.5;">
    <g transform="matrix(1,0,0,1,62.245,-119.219)">
        <g id="Bottom-page">
            <path d="M899.563,1007.06C899.563,1007.06 855.748,1027.14 848.931,1030.66C842.113,1034.19 827.57,1031.4 827.57,1031.4C827.57,1031.4 488.629,957.48 482.438,956.445C477.854,955.679 478.697,945.012 478.697,945.012L478.562,945.011C478.274,955.71 474.593,956.047 474.593,956.047C474.593,956.047 360.64,980.398 261.764,1001.63C187.78,1017.51 122.237,1031.65 119.19,1032.53C113.382,1034.2 104.918,1031.56 104.918,1031.56L53.541,1007.73L53.542,1007.17L475.964,913.064L899.388,1005.86" style="fill:rgb(231,223,215);stroke:black;stroke-width:2.78px;"/>
        </g>
    </g>
    <g id="top-page" transform="matrix(1,0,0,1,-4.876,51.9035)">
        <path d="M544.701,202.921C544.602,191.549 535.852,190.597 535.852,190.597L183.921,115.36L183.561,115.276C183.561,115.276 175.172,113.422 169.791,115.387C164.411,117.352 165.983,116.776 165.983,116.776L119.904,138.707L547.459,241.638L964.127,139.076L936.791,125.839L923.071,119.153L925.702,121.445C918.109,112.221 894.976,114.944 894.976,114.944L551.897,190.952C551.897,190.952 543.332,191.708 544.682,202.921" style="fill:rgb(231,223,215);stroke:black;stroke-width:2.78px;"/>
    </g>
    <g>
        <g id="book-cover">
            <path d="M422.086,253.099L655.258,252.654L656.441,252.961C656.441,252.961 962.215,189.19 978.419,185.171C994.623,181.152 995.477,193.801 995.477,193.801C995.477,193.801 995.541,862.347 996.035,880.337C996.528,898.327 977.465,892.969 977.465,892.969L656.921,824.996L420.329,825.537L97.017,894.349C97.017,894.349 82.177,893.663 81.908,880.493L82.596,195.392C82.596,195.392 86.035,182.433 101.099,185.282L420.396,253.504" style="fill:rgb(18,79,10);stroke:black;stroke-width:2.78px;"/>
        </g>
        <g id="Center-bind">
            <path d="M657.203,254.01L656.444,824.855L656.041,824.855C543.244,733.523 422.027,823.916 422.027,823.916L422.856,253.861L422.805,253.528C422.805,253.528 521.168,343.897 656.961,253.56" style="stroke:black;stroke-width:2.78px;"/>
        </g>
    </g>
    <path d="M421.688,825.09L656.864,824.742C656.864,824.742 555.293,737.443 421.733,824.021" style="fill:rgb(115,115,115);stroke:black;stroke-width:2.78px;"/>
    <path d="M658.095,252.895L421.663,253.265L421.373,253.183C421.373,253.183 517.591,349.311 658.418,253.763" style="fill:rgb(115,115,115);stroke:black;stroke-width:2.78px;"/>
    <g transform="matrix(1,0,0,1,137.911,360.335)">
        <path id="S" d="M48.442,346.793C47.235,344.076 46.631,341.209 46.631,338.191C46.631,335.776 47.386,334.191 48.895,333.437C50.404,332.682 51.159,331.249 51.159,329.136C51.159,327.023 50.706,325.288 49.8,323.93C48.895,322.571 47.839,320.987 46.631,319.176L47.084,319.176C47.386,319.176 47.537,319.1 47.537,318.95C47.537,318.799 47.688,318.723 47.99,318.723L49.348,318.723C51.762,318.723 52.97,319.478 52.97,320.987C52.97,322.496 53.724,323.25 55.233,323.25L56.591,323.25C56.29,319.025 56.667,315.252 57.723,311.932C58.78,308.612 59.987,305.368 61.345,302.198C62.703,299.029 63.986,295.785 65.193,292.465C66.401,289.145 67.004,285.372 67.004,281.146C68.212,281.146 68.966,281.599 69.268,282.505C69.57,283.41 70.475,283.863 71.984,283.863C76.21,283.863 80.586,283.259 85.114,282.052C89.641,280.845 93.866,279.486 97.79,277.977L101.412,291.559C102.016,291.257 102.619,290.503 103.223,289.296C103.826,288.088 104.355,286.73 104.807,285.221C105.26,283.712 105.562,282.278 105.713,280.92C105.864,279.562 105.788,278.581 105.486,277.977C108.505,275.563 111.221,273.525 113.636,271.865C116.05,270.205 118.918,269.375 122.238,269.375C122.539,269.375 123.068,269.451 123.822,269.602C124.577,269.753 125.105,269.828 125.407,269.828L121.332,273.903C121.936,275.412 122.539,277.147 123.143,279.109C123.747,281.071 124.35,282.052 124.954,282.052C127.067,282.052 128.727,281.222 129.934,279.562C131.141,277.902 132.198,276.015 133.103,273.903C134.009,271.79 134.914,269.602 135.82,267.338C136.725,265.074 137.781,263.339 138.989,262.132C140.196,260.924 141.554,260.094 143.063,259.642C144.572,259.189 145.931,258.736 147.138,258.283C148.345,257.831 149.401,257.227 150.307,256.473C151.212,255.718 151.665,254.435 151.665,252.624C151.665,250.21 150.533,248.172 148.27,246.512C146.006,244.852 143.667,244.022 141.252,244.022C139.743,244.022 138.762,244.4 138.31,245.154C137.857,245.909 137.178,246.286 136.272,246.286L135.367,246.286C134.763,242.362 134.16,238.363 133.556,234.289C132.952,230.214 132.198,226.366 131.292,222.744L130.387,222.744L129.481,222.744C128.878,222.744 128.123,222.97 127.218,223.423C126.312,223.876 125.709,224.253 125.407,224.555L124.501,224.555L123.596,224.555C123.596,223.649 123.369,221.612 122.917,218.443C122.464,215.274 121.936,213.388 121.332,212.784C119.823,209.162 117.484,207.804 114.315,208.709C111.146,209.615 108.203,210.068 105.486,210.068L105.486,213.237C101.563,213.237 97.79,211.501 94.168,208.03C90.546,204.559 88.434,200.862 87.83,196.938C87.528,197.24 86.924,197.693 86.019,198.297C85.114,198.9 84.359,199.202 83.755,199.202L82.85,198.297C82.246,197.693 81.944,197.24 81.944,196.938C80.435,194.524 79.605,192.411 79.454,190.6C79.304,188.789 79.53,186.375 80.134,183.356C78.323,184.564 76.738,185.545 75.38,186.299C74.022,187.054 72.286,187.431 70.173,187.431C66.853,187.431 65.495,185.771 66.099,182.451C66.702,179.131 67.004,176.414 67.004,174.302C66.099,174.302 64.439,174 62.024,173.396C59.61,172.793 58.402,174.151 58.402,177.471C58.402,178.074 59.081,179.055 60.44,180.414C61.798,181.772 62.477,182.753 62.477,183.356C62.477,183.658 61.949,184.564 60.892,186.073C59.836,187.582 59.006,188.638 58.402,189.242L57.497,189.242L56.591,189.242C55.988,188.638 55.535,187.582 55.233,186.073C54.931,184.564 54.63,183.658 54.328,183.356C54.026,183.055 53.121,182.753 51.611,182.451C50.102,182.149 49.046,181.847 48.442,181.545C44.519,179.131 41.651,176.113 39.84,172.491C38.029,168.869 36.898,165.247 36.445,161.625C35.992,158.003 35.841,154.91 35.992,152.344C36.143,149.779 36.068,148.496 35.766,148.496L29.88,149.401L28.975,149.854C28.673,150.156 28.296,150.835 27.843,151.891C27.39,152.948 27.013,153.627 26.711,153.929C26.711,154.231 26.56,154.382 26.258,154.382C25.957,154.683 25.655,154.834 25.353,154.834C25.353,150.911 24.749,147.968 23.542,146.006C22.335,144.044 20.826,142.233 19.015,140.573C17.204,138.913 15.393,137.253 13.582,135.593C11.771,133.933 10.262,131.443 9.055,128.123C9.055,127.519 8.979,125.709 8.828,122.69C8.677,119.672 8.602,117.861 8.602,117.258C8.602,108.505 10.111,101.261 13.129,95.526C16.147,89.792 19.392,84.51 22.863,79.681C26.334,74.852 29.578,70.249 32.597,65.872C35.615,61.496 37.124,56.29 37.124,50.253L51.611,50.253C51.611,49.348 51.461,48.291 51.159,47.084C50.857,45.877 50.706,44.67 50.706,43.462C50.706,42.255 51.008,41.199 51.611,40.293C52.215,39.388 53.422,38.935 55.233,38.935C57.044,38.935 58.78,40.519 60.44,43.689C62.1,46.858 64.741,48.442 68.362,48.442L68.362,52.97C69.57,52.97 70.324,53.045 70.626,53.196C70.928,53.347 71.381,52.668 71.984,51.159L71.984,31.691C71.984,31.088 72.286,30.333 72.89,29.428C73.493,28.522 73.946,27.918 74.248,27.617C76.964,27.617 79.002,28.371 80.36,29.88C81.718,31.389 82.774,33.125 83.529,35.087C84.284,37.049 84.887,39.161 85.34,41.425C85.793,43.689 86.623,45.726 87.83,47.537C89.641,47.235 90.546,45.877 90.546,43.462C90.546,41.048 90.546,39.689 90.546,39.388C90.546,34.257 89.415,31.163 87.151,30.107C84.887,29.05 81.19,26.862 76.059,23.542L76.059,21.731L91.905,21.731C93.112,21.731 94.093,22.335 94.847,23.542C95.602,24.749 96.13,26.108 96.432,27.617C96.734,29.126 96.96,30.635 97.111,32.144C97.262,33.653 97.337,34.86 97.337,35.766L103.676,35.766L107.75,25.806L119.521,31.691C120.728,28.673 122.69,27.164 125.407,27.164C127.821,27.164 129.029,28.069 129.029,29.88C129.029,31.691 129.783,32.899 131.292,33.502C131.594,34.106 132.198,33.955 133.103,33.049C133.405,32.748 133.707,32.597 134.009,32.597L134.009,24.9C134.31,25.202 134.763,25.353 135.367,25.353C135.669,25.353 135.97,25.428 136.272,25.579C136.574,25.73 136.876,25.806 137.178,25.806C138.687,26.409 139.441,27.617 139.441,29.428C139.441,30.937 139.064,32.144 138.31,33.049C137.555,33.955 137.178,35.162 137.178,36.671L137.178,37.577L138.989,39.388L139.894,39.388C142.309,39.388 143.591,37.879 143.742,34.86C143.893,31.842 143.969,29.88 143.969,28.975C146.081,28.975 148.421,29.956 150.986,31.918C153.552,33.879 155.438,35.766 156.645,37.577C156.947,37.275 157.626,36.596 158.682,35.539C159.739,34.483 160.871,33.502 162.078,32.597C163.285,31.691 164.417,30.861 165.473,30.107C166.53,29.352 167.209,28.975 167.511,28.975C169.925,28.975 171.736,29.956 172.944,31.918C174.151,33.879 174.981,36.143 175.434,38.709C175.886,41.274 176.113,43.764 176.113,46.179C176.113,48.593 176.264,50.253 176.565,51.159C176.867,51.762 177.848,52.743 179.508,54.101C181.168,55.46 182.149,56.441 182.451,57.044L182.451,57.95C182.451,58.251 182.602,58.553 182.904,58.855C182.904,59.157 182.828,59.534 182.677,59.987C182.526,60.44 182.451,60.817 182.451,61.119C182.451,61.722 182.225,63.081 181.772,65.193C181.319,67.306 180.942,68.664 180.64,69.268L179.734,69.268C178.225,69.268 177.244,68.891 176.792,68.136C176.339,67.382 175.886,66.552 175.434,65.646C174.981,64.741 174.151,63.911 172.944,63.156C171.736,62.402 169.473,62.024 166.153,62.024C165.851,62.628 165.549,63.081 165.247,63.382C164.643,64.288 164.493,64.892 164.794,65.193C165.096,65.495 166.077,65.797 167.737,66.099C169.397,66.401 170.378,66.702 170.68,67.004C171.887,67.608 172.642,68.438 172.944,69.494C173.245,70.551 173.547,71.607 173.849,72.663C174.151,73.72 174.604,74.625 175.207,75.38C175.811,76.134 177.018,76.512 178.829,76.512C178.829,77.719 178.225,78.775 177.018,79.681C175.811,80.586 174.377,81.492 172.717,82.397C171.057,83.303 169.623,84.284 168.416,85.34C167.209,86.396 166.605,87.83 166.605,89.641C166.605,92.055 167.36,93.715 168.869,94.621C170.378,95.526 171.133,97.186 171.133,99.601C170.831,100.205 170.68,100.657 170.68,100.959L170.68,102.77C170.378,101.865 169.548,100.884 168.19,99.827C166.832,98.771 165.323,97.639 163.663,96.432C162.003,95.225 160.342,94.244 158.682,93.489C157.022,92.735 155.74,92.357 154.834,92.357C153.627,92.357 152.797,92.735 152.344,93.489C151.891,94.244 151.061,94.621 149.854,94.621L148.949,94.621C148.345,94.319 147.515,93.64 146.459,92.584L139.215,85.34C138.159,84.284 137.48,83.454 137.178,82.85C136.272,81.944 135.744,80.964 135.593,79.907C135.442,78.851 135.291,77.719 135.14,76.512C134.99,75.304 134.688,74.399 134.235,73.795C133.782,73.192 132.801,72.89 131.292,72.89C129.783,72.89 127.067,73.116 123.143,73.569C119.219,74.022 115.069,74.474 110.693,74.927C106.317,75.38 102.166,75.757 98.243,76.059C94.319,76.361 91.603,76.663 90.094,76.964C85.868,77.266 82.774,77.945 80.813,79.002C78.851,80.058 77.417,81.567 76.512,83.529C75.606,85.491 74.776,87.755 74.022,90.32C73.267,92.885 71.984,95.677 70.173,98.696C68.061,98.092 67.382,97.488 68.136,96.885C68.891,96.281 69.268,95.677 69.268,95.074C67.155,95.074 65.269,94.923 63.609,94.621C61.949,94.319 60.591,94.244 59.534,94.395C58.478,94.545 57.723,95.3 57.271,96.658C56.818,98.016 56.591,100.356 56.591,103.676C56.591,106.996 57.95,108.656 60.666,108.656C62.779,108.656 63.911,107.524 64.062,105.26C64.212,102.996 65.193,101.865 67.004,101.865C67.004,103.676 67.231,106.166 67.683,109.335C68.136,112.504 68.891,115.598 69.947,118.616C71.003,121.634 72.437,124.275 74.248,126.539C76.059,128.802 78.172,129.934 80.586,129.934C80.586,129.934 80.435,129.934 80.134,129.934C79.53,130.236 79.077,130.538 78.775,130.839C78.474,131.141 78.323,131.443 78.323,131.745C78.323,132.047 78.172,132.198 77.87,132.198L77.87,134.009C77.87,135.82 78.851,137.027 80.813,137.63C82.774,138.234 84.736,138.913 86.698,139.668C88.66,140.422 90.32,141.554 91.678,143.063C93.036,144.572 93.112,146.836 91.905,149.854C92.508,148.647 93.866,148.043 95.979,148.043C98.394,148.043 99.978,148.873 100.733,150.533C101.487,152.193 102.091,153.929 102.544,155.74C102.996,157.551 103.676,159.286 104.581,160.946C105.486,162.606 107.147,163.436 109.561,163.436L111.372,163.436C109.863,161.927 109.033,160.267 108.882,158.456C108.731,156.645 108.656,154.985 108.656,153.476C108.656,151.967 108.203,150.533 107.297,149.175C106.392,147.817 104.581,146.685 101.865,145.78C102.468,145.478 103.147,145.327 103.902,145.327C104.656,145.327 105.185,145.327 105.486,145.327C107.901,145.327 110.165,146.081 112.277,147.591C114.39,149.1 116.503,150.76 118.616,152.571C120.728,154.382 122.766,156.192 124.728,158.003C126.689,159.814 128.878,161.022 131.292,161.625C133.103,162.229 135.518,162.983 138.536,163.889C141.554,164.794 143.063,165.398 143.063,165.7L153.023,185.167C153.023,184.564 153.25,183.583 153.702,182.225C154.155,180.866 154.532,179.885 154.834,179.282C154.834,179.282 154.985,179.131 155.287,178.829L156.192,178.829L156.645,179.282C159.362,183.507 161.474,188.185 162.983,193.316L166.605,191.053C165.398,194.071 165.096,197.316 165.7,200.787C166.303,204.257 167.435,207.502 169.095,210.52C170.755,213.538 172.944,216.179 175.66,218.443C178.376,220.707 181.244,222.14 184.262,222.744C186.375,225.46 188.336,228.403 190.147,231.572C191.958,234.741 192.864,237.986 192.864,241.306C192.864,243.117 191.43,245.607 188.563,248.776C185.695,251.945 183.055,253.077 180.64,252.172C183.055,255.492 184.262,259.415 184.262,263.943C184.262,265.754 183.885,268.545 183.13,272.318C182.375,276.091 180.489,277.977 177.471,277.977L176.565,277.977C176.264,277.675 175.66,277.374 174.754,277.072C173.849,276.77 173.094,276.317 172.491,275.714L172.491,277.977C172.793,279.185 173.245,280.995 173.849,283.41C174.453,285.825 174.754,287.334 174.754,287.937L176.565,289.748C175.962,290.352 175.207,291.333 174.302,292.691C173.396,294.049 172.793,295.03 172.491,295.634C170.982,298.652 169.774,300.463 168.869,301.067C167.963,301.67 166.605,303.179 164.794,305.594C165.7,307.103 167.058,307.858 168.869,307.858L168.869,313.743C166.153,313.743 163.813,312.611 161.852,310.348C159.89,308.084 157.852,306.952 155.74,306.952L154.834,307.405L150.76,329.136C150.76,329.74 150.156,330.343 148.949,330.947L148.043,330.947C146.836,330.947 146.006,330.494 145.553,329.589C145.101,328.683 144.799,327.778 144.648,326.872C144.497,325.967 144.271,325.061 143.969,324.156C143.667,323.25 142.912,322.798 141.705,322.798C138.989,322.798 137.329,323.93 136.725,326.193C136.121,328.457 135.669,330.796 135.367,333.211L133.103,333.211C130.689,333.211 128.727,331.928 127.218,329.362C125.709,326.797 124.501,324.76 123.596,323.25C122.087,323.552 121.332,324.156 121.332,325.061C121.332,325.967 121.332,327.023 121.332,328.231C121.332,329.74 121.709,330.721 122.464,331.173C123.218,331.626 123.596,332.607 123.596,334.116C123.596,335.625 123.445,337.21 123.143,338.87C122.841,340.53 121.634,341.36 119.521,341.36C119.219,341.36 118.918,341.284 118.616,341.133C118.314,340.982 117.861,340.907 117.258,340.907C117.861,340.303 117.861,339.021 117.258,337.059C116.654,335.097 116.05,333.814 115.447,333.211L114.088,333.211L113.183,333.211C112.881,333.211 112.73,333.06 112.73,332.758C111.221,332.758 109.637,332.833 107.977,332.984C106.317,333.135 105.486,334.116 105.486,335.927L105.486,336.832C105.788,337.134 106.467,337.512 107.524,337.964C108.58,338.417 109.259,338.794 109.561,339.096L110.014,339.549C110.014,339.851 110.165,340.002 110.467,340.002C107.448,340.002 105.637,340.303 105.034,340.907C104.43,341.511 104.279,342.265 104.581,343.171C104.883,344.076 105.109,345.208 105.26,346.566C105.411,347.924 104.883,349.358 103.676,350.867C103.374,351.169 102.166,351.471 100.054,351.773C97.941,352.074 96.583,352.376 95.979,352.678C95.375,352.678 94.923,353.282 94.621,354.489C94.319,355.696 94.017,356.451 93.715,356.753C93.715,357.054 93.565,357.205 93.263,357.205L91.905,357.205C89.49,357.205 87.83,356.375 86.924,354.715C86.019,353.055 84.057,352.225 81.039,352.225C80.435,352.225 79.53,352.301 78.323,352.452C77.115,352.603 76.361,352.678 76.059,352.678C75.757,352.678 75.153,353.357 74.248,354.715C73.343,356.074 72.588,356.753 71.984,356.753C71.381,356.753 70.4,356.074 69.042,354.715C67.683,353.357 66.702,352.678 66.099,352.678C65.495,352.376 64.363,351.999 62.703,351.546C61.043,351.093 59.308,350.49 57.497,349.735C55.686,348.981 53.951,348.377 52.291,347.924C50.63,347.472 49.348,347.094 48.442,346.793ZM66.099,344.982C65.193,344.982 64.741,345.661 64.741,347.019C64.741,348.377 65.193,349.056 66.099,349.056C67.306,349.056 67.91,348.377 67.91,347.019C67.91,345.661 67.306,344.982 66.099,344.982ZM54.328,340.907L56.591,340.907L56.591,339.096L54.328,339.096L54.328,340.907ZM70.173,335.021C66.552,335.021 64.288,335.625 63.382,336.832C62.477,338.04 62.628,339.322 63.835,340.681C65.042,342.039 67.231,343.322 70.4,344.529C73.569,345.736 77.417,346.34 81.944,346.34C82.246,346.34 81.944,345.736 81.039,344.529C80.134,343.322 78.926,342.039 77.417,340.681C75.908,339.322 74.399,338.04 72.89,336.832C71.381,335.625 70.475,335.021 70.173,335.021ZM74.248,329.136C74.248,331.249 74.852,332.607 76.059,333.211C76.059,332.909 76.134,332.531 76.285,332.079C76.436,331.626 76.512,331.249 76.512,330.947C76.512,329.136 75.757,327.929 74.248,327.325L74.248,329.136ZM62.477,325.061C62.779,324.458 62.477,324.156 61.572,324.156C60.666,324.156 60.213,324.458 60.213,325.061C60.515,325.665 60.968,325.967 61.572,325.967C62.175,325.967 62.477,325.665 62.477,325.061ZM115.447,315.554L117.258,313.29L115.447,313.29L115.447,315.554ZM129.481,313.29C127.369,313.29 126.01,314.045 125.407,315.554L131.292,315.554C131.292,314.045 130.689,313.29 129.481,313.29ZM87.83,289.748C87.226,290.352 85.415,291.71 82.397,293.823C79.379,295.936 77.87,297.445 77.87,298.35L91.905,302.425L87.83,289.748ZM143.063,269.828C142.46,269.526 142.158,269.828 142.158,270.734C142.158,271.639 142.46,272.092 143.063,272.092C143.667,271.79 143.969,271.337 143.969,270.734C143.969,270.13 143.667,269.828 143.063,269.828ZM178.829,261.679C177.32,261.679 175.886,262.132 174.528,263.037C173.17,263.943 171.887,264.999 170.68,266.206L173.396,266.206C177.018,266.206 178.829,264.697 178.829,261.679ZM144.874,262.132C143.969,262.132 143.516,262.811 143.516,264.169C143.516,265.527 143.969,266.206 144.874,266.206C146.081,266.206 146.685,265.527 146.685,264.169C146.685,262.811 146.081,262.132 144.874,262.132ZM174.754,252.172C176.264,251.266 177.018,250.059 177.018,248.55L174.754,248.55L174.754,252.172ZM160.72,250.361L162.983,250.361L162.983,246.286L160.72,246.286L160.72,250.361ZM178.376,238.59C177.471,238.59 177.018,239.193 177.018,240.401C177.018,241.608 177.471,242.211 178.376,242.211C179.584,242.211 180.187,241.608 180.187,240.401C180.187,239.193 179.584,238.59 178.376,238.59ZM140.8,222.744C140.8,225.159 141.328,227.724 142.384,230.44C143.441,233.157 145.629,234.515 148.949,234.515L150.76,234.515C151.665,234.213 153.401,233.911 155.966,233.61C158.532,233.308 160.116,233.006 160.72,232.704C161.022,232.402 161.172,232.1 161.172,231.799C161.172,230.591 160.72,229.912 159.814,229.761C158.909,229.61 158.003,229.46 157.098,229.309C156.192,229.158 155.287,228.78 154.382,228.177C153.476,227.573 153.023,226.366 153.023,224.555C150.911,226.064 149.477,226.743 148.722,226.592C147.968,226.441 146.383,226.366 143.969,226.366C143.969,223.951 144.346,222.14 145.101,220.933C145.855,219.726 144.572,218.368 141.252,216.859C141.252,217.462 141.177,218.443 141.026,219.801C140.875,221.159 140.8,222.14 140.8,222.744ZM176.565,230.44C175.962,230.139 175.66,230.44 175.66,231.346C175.66,232.251 175.962,232.704 176.565,232.704C177.169,232.402 177.471,231.95 177.471,231.346C177.471,230.742 177.169,230.44 176.565,230.44ZM163.436,207.804C160.116,207.804 157.098,208.483 154.382,209.841C151.665,211.199 150.307,213.689 150.307,217.311C152.722,217.311 155.513,216.481 158.682,214.821C161.852,213.161 163.436,210.822 163.436,207.804ZM147.138,202.824C147.138,205.54 148.345,207.653 150.76,209.162L150.76,198.749C148.345,198.749 147.138,200.107 147.138,202.824ZM123.596,202.824C121.785,204.333 120.879,205.691 120.879,206.898L123.596,206.898L123.596,202.824ZM131.292,206.898L133.103,206.898L131.292,201.013L131.292,206.898ZM158.909,202.824L160.72,202.824L158.909,201.013L158.909,202.824ZM114.541,196.938C114.541,198.447 115.522,199.504 117.484,200.107C119.446,200.711 120.728,201.013 121.332,201.013C121.936,200.711 122.539,200.107 123.143,199.202C123.747,198.297 123.898,197.542 123.596,196.938L114.541,196.938ZM144.874,196.938C145.176,196.335 144.95,196.033 144.195,196.033C143.441,196.033 143.063,196.335 143.063,196.938C143.365,197.542 143.742,197.844 144.195,197.844C144.648,197.844 144.874,197.542 144.874,196.938ZM148.949,191.053C149.854,192.864 151.212,193.769 153.023,193.769L153.023,191.053L148.949,191.053ZM87.83,191.053L90.546,191.053C90.546,189.846 89.641,188.638 87.83,187.431L87.83,191.053ZM127.218,191.053L130.387,191.053C130.387,190.147 130.236,189.091 129.934,187.884C129.632,186.676 128.727,185.771 127.218,185.167L127.218,191.053ZM119.521,189.242L121.332,187.431L117.258,187.431L119.521,189.242ZM103.676,179.282C103.072,178.98 102.77,179.282 102.77,180.187C102.77,181.093 103.072,181.545 103.676,181.545C105.185,180.036 105.185,179.282 103.676,179.282ZM74.248,173.396C74.248,174 74.474,174.981 74.927,176.339C75.38,177.697 75.757,178.678 76.059,179.282C77.568,178.678 78.474,177.32 78.775,175.207C79.077,173.094 79.228,171.736 79.228,171.133C78.323,171.133 77.266,171.284 76.059,171.585C74.852,171.887 74.248,172.491 74.248,173.396ZM109.561,179.282L111.372,179.282L111.372,177.471L109.561,177.471L109.561,179.282ZM132.198,167.058C131.292,167.058 130.613,167.662 130.16,168.869C129.708,170.076 129.33,171.434 129.029,172.944C128.727,174.453 128.576,175.886 128.576,177.244C128.576,178.603 128.576,179.433 128.576,179.734C130.387,179.734 132.047,179.131 133.556,177.924C135.065,176.716 135.82,175.207 135.82,173.396C135.82,172.491 135.593,171.208 135.14,169.548C134.688,167.888 133.707,167.058 132.198,167.058ZM121.332,175.66C120.427,175.66 119.974,176.264 119.974,177.471C119.974,178.678 120.427,179.282 121.332,179.282C122.539,179.282 123.143,178.678 123.143,177.471C123.143,176.264 122.539,175.66 121.332,175.66ZM141.252,171.585C140.649,170.982 140.347,171.585 140.347,173.396C140.347,175.207 140.649,175.962 141.252,175.66C142.46,173.547 142.46,172.189 141.252,171.585ZM50.253,163.436C49.348,163.436 48.895,164.115 48.895,165.473C48.895,166.832 49.348,167.511 50.253,167.511C51.461,167.511 52.064,166.832 52.064,165.473C52.064,164.115 51.461,163.436 50.253,163.436ZM62.477,165.7L64.288,165.7L64.288,163.436L62.477,165.7ZM117.258,165.7L119.521,165.7L117.258,163.436L117.258,165.7ZM76.059,159.814C75.153,159.814 74.701,160.418 74.701,161.625C74.701,162.833 75.153,163.436 76.059,163.436C76.964,163.436 77.417,162.833 77.417,161.625C77.417,160.418 76.964,159.814 76.059,159.814ZM115.447,159.814C114.541,159.814 114.088,160.418 114.088,161.625C114.088,162.833 114.541,163.436 115.447,163.436C116.352,163.436 116.805,162.833 116.805,161.625C116.805,160.418 116.352,159.814 115.447,159.814ZM50.253,157.551C49.65,157.249 49.348,157.551 49.348,158.456C49.348,159.362 49.65,159.814 50.253,159.814C50.857,159.512 51.159,159.06 51.159,158.456C51.159,157.852 50.857,157.551 50.253,157.551ZM44.368,127.67C47.386,127.67 49.121,129.33 49.574,132.65C50.027,135.97 50.253,138.385 50.253,139.894C53.573,137.48 55.46,134.009 55.912,129.481C56.365,124.954 56.591,121.03 56.591,117.71C56.591,117.107 56.591,116.578 56.591,116.126C56.591,115.673 55.837,115.145 54.328,114.541C54.931,117.861 54.177,120.578 52.064,122.69C49.951,124.803 47.386,126.01 44.368,126.312L44.368,127.67ZM36.671,132.198C37.577,133.707 38.935,134.461 40.746,134.461L40.746,132.198L36.671,132.198ZM32.144,120.427C32.144,121.936 32.823,122.917 34.181,123.369C35.539,123.822 36.973,124.048 38.482,124.048C40.897,124.048 42.632,123.671 43.689,122.917C44.745,122.162 45.273,120.578 45.273,118.163C45.273,117.559 45.198,116.503 45.047,114.994C44.896,113.485 44.066,112.579 42.557,112.277C43.462,113.787 43.538,115.069 42.783,116.126C42.029,117.182 40.972,118.012 39.614,118.616C38.256,119.219 36.898,119.672 35.539,119.974C34.181,120.276 33.049,120.427 32.144,120.427ZM23.089,86.924C21.882,86.924 21.278,87.528 21.278,88.735C21.278,89.943 21.882,90.546 23.089,90.546C23.995,90.546 24.448,89.943 24.448,88.735C24.448,87.528 23.995,86.924 23.089,86.924ZM63.835,84.661C63.835,87.679 65.344,89.188 68.362,89.188L68.362,84.661L63.835,84.661ZM68.362,78.775L71.984,78.775L71.984,76.964L68.362,76.964L68.362,78.775ZM70.173,62.93C69.268,62.93 68.815,63.609 68.815,64.967C68.815,66.325 69.268,67.004 70.173,67.004C71.079,67.004 71.532,66.325 71.532,64.967C71.532,63.609 71.079,62.93 70.173,62.93ZM60.213,57.044C58.704,58.553 57.95,59.911 57.95,61.119L60.213,61.119L60.213,57.044ZM81.944,59.308C81.341,59.006 81.039,59.232 81.039,59.987C81.039,60.742 81.341,61.119 81.944,61.119C82.548,60.817 82.85,60.44 82.85,59.987C82.85,59.534 82.548,59.308 81.944,59.308ZM156.645,59.308L159.362,59.308C159.362,57.497 158.456,56.139 156.645,55.233L156.645,59.308ZM112.73,37.124C110.617,37.124 109.259,37.954 108.656,39.614C108.052,41.274 107.75,42.859 107.75,44.368L107.75,47.537C108.957,46.933 110.542,45.877 112.504,44.368C114.466,42.859 115.447,41.199 115.447,39.388C115.447,38.18 114.843,37.577 113.636,37.577L112.73,37.124ZM148.949,41.651C148.043,41.651 147.591,42.255 147.591,43.462C147.591,44.67 148.043,45.273 148.949,45.273C149.854,45.273 150.307,44.67 150.307,43.462C150.307,42.255 149.854,41.651 148.949,41.651ZM133.103,35.766C132.198,35.766 131.745,36.369 131.745,37.577C131.745,38.784 132.198,39.388 133.103,39.388C134.31,39.388 134.914,38.784 134.914,37.577C134.914,36.369 134.31,35.766 133.103,35.766Z" style="fill:rgb(243,247,243);fill-rule:nonzero;"/>
    </g>
    <g transform="matrix(1,0,0,1,676.768,366.59)">
        <path id="A-" d="M264.733,340.239C265.04,340.239 265.5,340.086 266.114,339.779C266.728,339.472 267.188,339.319 267.495,339.319L267.495,338.398L267.495,337.477C267.188,337.17 266.728,336.863 266.114,336.556C265.5,336.249 265.04,335.942 264.733,335.635C264.426,335.328 263.735,335.328 262.661,335.635C261.587,335.942 261.05,335.942 261.05,335.635C261.05,335.328 260.896,334.868 260.589,334.254C260.282,333.64 259.975,333.026 259.669,332.413C259.362,332.106 258.901,330.955 258.287,328.959C257.673,326.964 257.366,325.813 257.366,325.506C256.753,324.893 255.755,323.051 254.374,319.982C252.993,316.912 251.995,315.071 251.381,314.457C251.381,314.15 250.998,313.306 250.23,311.924C249.463,310.543 249.079,309.699 249.079,309.392C249.079,309.085 248.772,308.241 248.158,306.86C247.545,305.479 246.931,304.098 246.317,302.716C245.703,301.335 245.166,299.954 244.705,298.573C244.245,297.192 243.861,296.347 243.554,296.041C243.247,295.427 242.787,294.045 242.173,291.897C241.559,289.748 240.869,287.446 240.101,284.991C239.334,282.535 238.567,280.157 237.799,277.855C237.032,275.552 236.495,273.788 236.188,272.56C235.881,272.56 235.421,271.486 234.807,269.337L233.886,266.575C233.886,265.961 233.656,264.963 233.195,263.582C232.735,262.201 232.351,261.203 232.044,260.589L232.044,259.208C231.737,259.208 231.354,258.978 230.893,258.517C230.433,258.057 230.049,257.673 229.742,257.366C229.435,256.753 229.128,255.602 228.821,253.913C228.514,252.225 228.361,251.074 228.361,250.46L228.361,246.777C228.054,246.163 227.056,245.242 225.368,244.015C223.68,242.787 222.529,241.866 221.915,241.252C221.301,240.638 219.997,239.948 218.002,239.18C216.007,238.413 214.856,238.029 214.549,238.029C213.935,238.029 212.017,238.567 208.794,239.641C205.571,240.715 203.806,241.252 203.499,241.252L202.118,241.252L200.737,241.252C200.43,241.252 199.893,240.792 199.125,239.871C198.358,238.95 197.667,238.336 197.053,238.029L195.212,238.029L193.37,238.029C192.756,238.336 191.759,238.95 190.378,239.871C188.996,240.792 187.999,241.252 187.385,241.252C187.078,241.252 185.85,241.329 183.702,241.483C181.553,241.636 180.018,241.713 179.098,241.713L173.573,241.713C172.345,241.713 171.271,241.559 170.35,241.252C169.736,241.252 168.585,240.945 166.897,240.331C165.209,239.718 164.211,239.411 163.904,239.411C163.597,239.411 162.907,239.718 161.832,240.331C160.758,240.945 160.068,241.252 159.761,241.252C159.454,241.559 157.919,241.636 155.157,241.483C152.394,241.329 150.706,241.252 150.092,241.252C149.785,241.252 148.941,241.483 147.56,241.943C146.179,242.403 145.181,242.634 144.567,242.634C143.953,242.94 142.649,243.017 140.654,242.864C138.659,242.71 137.508,242.634 137.201,242.634C135.973,242.94 133.517,243.401 129.834,244.015C126.151,244.629 123.849,244.936 122.928,244.936C122.621,244.936 121.7,244.629 120.166,244.015C118.631,243.401 117.557,242.94 116.943,242.634L116.022,242.634L115.562,242.634C115.562,242.634 115.101,243.094 114.18,244.015L113.26,244.936C112.646,245.242 111.572,245.242 110.037,244.936C108.502,244.629 107.581,244.629 107.274,244.936C106.661,245.242 105.663,245.78 104.282,246.547C102.901,247.314 102.056,248.005 101.75,248.619C101.443,248.926 101.136,249.847 100.829,251.381C100.522,252.916 100.368,253.99 100.368,254.604C99.754,254.604 99.601,254.527 99.908,254.374C100.215,254.22 100.061,254.144 99.448,254.144C98.834,253.53 98.143,252.839 97.376,252.072C96.608,251.304 96.225,250.767 96.225,250.46C95.918,250.153 95.764,249.463 95.764,248.389C95.764,247.314 95.918,246.777 96.225,246.777C95.918,246.777 95.227,247.084 94.153,247.698C93.079,248.312 92.388,248.619 92.081,248.619L91.16,247.698L90.239,246.777L89.319,244.936C88.705,243.708 88.398,242.94 88.398,242.634C88.091,242.634 87.861,242.71 87.707,242.864C87.554,243.017 87.324,243.094 87.017,243.094C86.71,243.401 86.249,243.554 85.635,243.554C85.635,244.168 85.789,244.782 86.096,245.396C86.403,246.01 86.249,246.47 85.635,246.777C85.635,247.084 85.482,247.391 85.175,247.698C84.561,248.312 84.101,248.619 83.794,248.619C83.18,249.233 81.722,250.384 79.42,252.072C77.118,253.76 75.506,254.911 74.586,255.525L74.586,257.366C74.586,257.366 74.893,258.287 75.506,260.129C75.813,261.05 76.12,261.817 76.427,262.431L76.427,264.273C76.427,264.579 75.89,265.193 74.816,266.114C73.742,267.035 73.204,267.649 73.204,267.956C73.204,268.57 72.897,269.721 72.284,271.409C71.67,273.097 71.363,274.248 71.363,274.862C70.749,274.862 70.442,274.708 70.442,274.401C69.214,273.788 68.6,273.174 68.6,272.56L68.6,267.956L59.392,259.208L57.551,259.208L56.63,259.208C56.63,259.208 56.323,259.515 55.709,260.129L55.249,260.589C54.635,261.203 54.174,262.738 53.867,265.193C53.56,267.649 53.254,269.184 52.947,269.797C52.64,270.104 52.256,271.102 51.796,272.79C51.335,274.478 51.105,275.629 51.105,276.243C51.105,276.243 51.412,276.397 52.026,276.703C52.333,276.703 52.64,276.55 52.947,276.243C53.254,276.243 53.56,276.013 53.867,275.552C54.174,275.092 54.635,274.708 55.249,274.401C55.249,273.788 55.862,272.713 57.09,271.179C58.318,269.644 59.085,268.57 59.392,267.956C59.699,268.263 60.006,269.03 60.313,270.258C60.62,271.486 60.773,272.253 60.773,272.56C60.467,273.174 59.776,274.401 58.702,276.243C57.627,278.085 56.937,279.312 56.63,279.926L56.63,293.738C56.63,294.352 57.09,296.117 58.011,299.033C58.932,301.949 59.392,303.714 59.392,304.328L59.392,308.011C58.471,308.011 57.014,308.241 55.018,308.702C53.023,309.162 51.719,309.392 51.105,309.392C50.491,309.699 49.494,310.313 48.112,311.234C46.731,312.155 45.734,312.769 45.12,313.076L45.12,308.011L44.199,308.932C43.892,309.239 43.585,309.392 43.278,309.392L42.818,309.392C42.818,309.392 42.204,309.699 40.976,310.313C40.362,310.62 39.902,310.773 39.595,310.773C39.288,311.694 38.904,313.076 38.444,314.917C37.983,316.759 37.753,317.986 37.753,318.6C38.06,318.293 38.904,318.14 40.285,318.14C41.667,318.14 42.511,318.293 42.818,318.6C43.432,318.6 44.352,318.984 45.58,319.751C46.808,320.519 47.422,321.209 47.422,321.823C47.422,322.437 46.731,323.435 45.35,324.816C43.969,326.197 43.125,326.888 42.818,326.888C42.818,327.502 42.357,328.729 41.436,330.571C40.516,332.413 39.902,333.487 39.595,333.794C39.288,334.408 38.597,335.098 37.523,335.866C36.449,336.633 35.912,337.17 35.912,337.477L34.07,337.477L31.768,337.477C31.461,337.17 29.85,336.863 26.934,336.556C24.018,336.249 22.253,335.942 21.639,335.635C21.332,335.635 20.411,335.712 18.877,335.866C17.342,336.019 16.421,335.942 16.114,335.635C16.114,335.328 15.731,334.868 14.963,334.254C14.196,333.64 13.812,333.026 13.812,332.413L13.812,321.823C13.812,321.209 13.275,319.982 12.201,318.14C11.126,316.298 10.436,315.071 10.129,314.457L10.129,311.234L10.129,308.011C10.129,307.397 10.436,306.4 11.05,305.018C11.664,303.637 11.971,302.64 11.971,302.026C12.277,301.719 12.661,300.798 13.122,299.263C13.582,297.729 13.812,296.654 13.812,296.041L16.114,295.58C16.114,295.58 16.421,295.734 17.035,296.041L17.956,296.041C18.57,296.041 19.26,296.271 20.028,296.731C20.795,297.192 21.332,297.422 21.639,297.422C21.946,296.808 22.406,295.427 23.02,293.278C23.634,291.13 23.941,289.748 23.941,289.134C23.941,288.828 23.557,288.137 22.79,287.063C22.023,285.988 21.639,285.298 21.639,284.991C21.639,284.684 22.33,283.533 23.711,281.538C25.092,279.543 25.936,278.392 26.243,278.085C26.243,277.778 26.013,276.934 25.552,275.552C25.092,274.171 24.555,273.174 23.941,272.56C23.327,272.253 22.867,271.946 22.56,271.639C21.946,271.025 21.639,270.718 21.639,270.718L21.639,269.797L21.639,267.956C21.639,267.649 21.946,267.342 22.56,267.035C23.174,266.728 23.634,266.575 23.941,266.575C24.555,266.268 25.552,265.884 26.934,265.424C28.315,264.963 29.159,264.579 29.466,264.273L29.466,262.431L29.466,260.589C29.159,260.282 28.545,259.745 27.624,258.978C26.703,258.211 26.243,257.673 26.243,257.366C25.936,257.06 25.783,256.753 25.783,256.446L25.783,255.525L26.243,254.144C26.243,253.53 26.397,252.302 26.703,250.46C27.01,248.619 27.317,247.391 27.624,246.777C27.624,246.47 27.855,245.856 28.315,244.936C28.775,244.015 29.159,243.247 29.466,242.634C29.773,243.247 30.77,244.245 32.459,245.626C34.147,247.007 35.298,248.005 35.912,248.619L39.595,248.619C39.595,247.698 39.825,246.393 40.285,244.705C40.746,243.017 41.13,241.866 41.436,241.252L42.818,239.411C44.352,237.876 45.12,236.955 45.12,236.648C45.427,235.421 45.58,233.272 45.58,230.203C45.58,227.133 45.427,225.138 45.12,224.217C46.654,223.603 47.422,222.836 47.422,221.915C47.729,221.608 48.036,221.225 48.343,220.764C48.649,220.304 49.11,219.767 49.724,219.153C50.338,218.539 50.798,217.925 51.105,217.311C51.105,217.004 50.875,216.314 50.414,215.239C49.954,214.165 49.724,213.475 49.724,213.168C49.417,212.861 48.956,211.863 48.343,210.175C47.729,208.487 47.422,207.336 47.422,206.722L47.422,204.88L47.422,203.499C47.422,203.806 47.729,204.113 48.343,204.42C48.956,204.727 49.417,204.88 49.724,204.88C50.338,205.494 51.565,206.415 53.407,207.643C55.249,208.87 56.323,209.638 56.63,209.945L59.392,209.945C59.699,209.331 60.313,208.717 61.234,208.103C62.155,207.489 62.922,207.029 63.536,206.722C63.536,206.108 63.382,204.65 63.076,202.348C62.769,200.046 62.922,198.588 63.536,197.974C63.536,197.667 63.689,197.13 63.996,196.363C64.303,195.595 64.457,195.058 64.457,194.751C64.457,194.444 64.533,194.061 64.687,193.6C64.84,193.14 64.917,192.756 64.917,192.449L64.457,191.068L63.536,189.687C62.922,189.38 62.615,188.92 62.615,188.306L66.759,188.306C67.373,187.999 68.063,187.308 68.831,186.234C69.598,185.16 70.135,184.469 70.442,184.162C70.442,183.855 70.902,182.244 71.823,179.328C72.744,176.412 73.204,174.647 73.204,174.033C73.204,173.419 73.588,172.268 74.355,170.58C75.123,168.892 75.813,167.741 76.427,167.127L77.348,166.206C77.655,165.899 77.808,165.592 77.808,165.285L82.413,170.81L85.635,167.127L85.635,147.79L88.398,145.948C89.626,145.948 90.239,146.562 90.239,147.79C90.546,148.404 90.93,149.785 91.39,151.934C91.851,154.082 92.081,155.617 92.081,156.538L92.081,163.444C92.081,164.672 92.695,165.285 93.923,165.285L96.225,165.285C96.532,164.979 96.839,164.365 97.145,163.444C97.452,162.523 97.606,161.909 97.606,161.602C97.913,160.988 98.066,159.53 98.066,157.228C98.066,154.926 97.913,153.468 97.606,152.855C98.22,152.855 98.987,152.548 99.908,151.934C100.829,151.32 101.443,151.013 101.75,151.013C102.67,150.092 103.438,149.632 104.052,149.632L104.052,148.711L104.052,147.79C103.438,147.483 102.67,147.099 101.75,146.639C100.829,146.179 100.061,145.948 99.448,145.948C99.448,145.641 99.217,145.335 98.757,145.028C98.297,144.721 97.913,144.414 97.606,144.107C97.299,143.493 96.301,142.342 94.613,140.654C92.925,138.966 92.081,137.968 92.081,137.661L90.239,135.82L90.239,133.517L90.239,130.295C90.239,129.988 90.47,129.758 90.93,129.604C91.39,129.451 91.774,129.22 92.081,128.913C92.388,128.3 93.539,127.302 95.534,125.921C97.529,124.54 98.834,123.542 99.448,122.928C100.061,122.928 100.599,122.468 101.059,121.547C101.519,120.626 101.75,120.012 101.75,119.705C102.056,119.705 102.363,119.552 102.67,119.245C103.284,118.631 103.745,118.324 104.052,118.324C104.052,117.71 104.359,116.713 104.972,115.331C105.586,113.95 105.893,113.106 105.893,112.799C105.893,112.185 105.97,111.418 106.123,110.497C106.277,109.576 106.354,108.963 106.354,108.656C107.581,108.656 108.502,108.349 109.116,107.735C110.037,107.121 111.341,106.43 113.029,105.663C114.718,104.896 115.562,104.359 115.562,104.052L115.562,90.239C115.562,89.012 116.022,88.398 116.943,88.398C117.557,88.091 118.631,88.091 120.166,88.398C121.7,88.705 122.621,88.858 122.928,88.858L122.928,80.571C124.463,80.571 125.691,80.11 126.611,79.19C127.532,79.19 128.376,78.576 129.144,77.348C129.911,76.12 130.448,75.2 130.755,74.586L129.834,71.363C129.527,71.056 129.374,70.442 129.374,69.521C129.681,69.521 130.525,69.291 131.906,68.831C133.287,68.37 134.131,67.986 134.438,67.68C134.438,67.373 134.745,66.529 135.359,65.147C135.973,63.766 136.587,62.769 137.201,62.155L137.201,61.234L137.201,60.313C137.201,60.006 136.971,59.239 136.51,58.011C136.05,56.783 135.666,55.479 135.359,54.098C135.052,52.716 134.822,51.412 134.669,50.184C134.515,48.956 134.438,48.189 134.438,47.882C134.438,47.268 135.052,46.194 136.28,44.659C137.508,43.125 138.275,42.05 138.582,41.436L142.726,41.436C142.726,40.823 142.879,40.209 143.186,39.595C143.493,38.981 143.953,38.367 144.567,37.753C145.181,37.446 146.179,36.909 147.56,36.142C148.941,35.374 149.785,34.684 150.092,34.07C150.706,34.07 151.397,33.686 152.164,32.919C152.931,32.152 153.622,31.461 154.236,30.847C154.236,31.768 154.773,33.072 155.847,34.761C156.921,36.449 157.766,37.446 158.379,37.753C158.993,38.367 160.221,38.674 162.063,38.674C163.904,38.674 165.132,38.367 165.746,37.753L191.068,47.882C191.068,48.496 191.452,49.187 192.219,49.954C192.986,50.721 193.524,51.412 193.831,52.026C193.831,52.333 193.984,52.64 194.291,52.947C194.598,53.254 194.905,53.407 195.212,53.407C195.826,53.714 197.207,53.791 199.355,53.637C201.504,53.484 202.732,53.407 203.039,53.407C203.039,53.714 203.192,54.021 203.499,54.328C204.113,54.942 204.573,55.249 204.88,55.249C205.187,55.249 205.341,55.402 205.341,55.709C204.727,55.709 203.959,55.786 203.039,55.939C202.118,56.093 201.504,56.476 201.197,57.09C200.583,57.09 200.046,57.551 199.586,58.471C199.125,59.392 198.895,60.006 198.895,60.313C198.588,60.927 197.897,61.924 196.823,63.306C195.749,64.687 195.212,65.531 195.212,65.838C195.212,66.145 195.135,66.989 194.982,68.37C194.828,69.751 194.751,70.749 194.751,71.363C194.751,72.284 194.828,73.588 194.982,75.276C195.135,76.964 195.212,77.962 195.212,78.269C195.212,78.883 195.442,79.957 195.902,81.492C196.363,83.026 196.746,84.101 197.053,84.715C197.36,85.021 197.667,85.405 197.974,85.866C198.281,86.326 198.588,86.71 198.895,87.017L203.039,87.017C203.039,87.63 203.499,89.088 204.42,91.39C205.341,93.692 206.108,95.611 206.722,97.145C207.029,97.452 207.336,98.066 207.643,98.987C207.95,99.908 208.257,100.522 208.564,100.829C208.564,101.136 208.947,101.98 209.715,103.361C210.482,104.742 211.019,105.74 211.326,106.354L212.247,107.735C212.247,108.349 212.63,109.807 213.398,112.109C214.165,114.411 214.702,116.329 215.009,117.864L215.009,121.087C215.009,121.7 215.239,123.158 215.7,125.46C216.16,127.762 216.39,129.22 216.39,129.834L216.851,130.295C217.158,130.602 217.311,130.832 217.311,130.985C217.311,131.139 217.465,131.369 217.772,131.676C218.079,132.29 218.539,132.904 219.153,133.517C219.46,134.131 219.767,135.82 220.074,138.582C220.381,141.344 220.688,143.033 220.994,143.646C220.994,144.26 221.608,145.258 222.836,146.639C224.064,148.02 224.678,148.864 224.678,149.171L224.678,159.761C224.678,160.068 224.985,160.681 225.599,161.602C226.212,162.523 226.673,162.983 226.98,162.983C227.287,163.597 228.591,164.825 230.893,166.667C233.195,168.508 234.5,169.736 234.807,170.35L234.807,171.731C234.5,172.038 233.732,172.345 232.505,172.652C231.277,172.959 230.51,173.266 230.203,173.573L230.203,176.796C230.51,177.103 230.893,177.716 231.354,178.637C231.814,179.558 232.351,180.172 232.965,180.479L234.807,182.32C235.114,182.934 235.651,184.162 236.418,186.004C237.185,187.845 237.723,189.073 238.029,189.687C238.336,189.687 238.643,189.84 238.95,190.147C239.564,190.761 240.025,191.068 240.331,191.068C240.945,191.682 241.559,192.142 242.173,192.449C242.48,193.063 242.787,194.905 243.094,197.974C243.401,201.044 243.861,202.885 244.475,203.499C244.475,203.806 245.549,204.343 247.698,205.11C249.847,205.878 251.228,206.415 251.842,206.722C252.149,207.029 252.302,207.796 252.302,209.024C252.302,209.638 252.149,210.405 251.842,211.326C251.842,212.554 252.609,213.168 254.144,213.168L255.525,213.168C255.832,213.475 256.215,213.858 256.676,214.319C257.136,214.779 257.366,215.163 257.366,215.47C257.366,215.47 256.829,215.777 255.755,216.39C254.681,217.004 253.53,217.541 252.302,218.002C251.074,218.462 249.923,218.999 248.849,219.613C247.775,220.227 247.238,220.534 247.238,220.534C247.238,220.841 247.161,221.148 247.007,221.455C246.854,221.762 246.777,222.069 246.777,222.376L246.777,223.297C246.777,223.603 246.931,223.91 247.238,224.217L249.079,226.059C249.693,226.366 250.46,227.133 251.381,228.361C252.302,229.589 253.069,230.51 253.683,231.123C253.99,230.51 254.527,229.589 255.295,228.361C256.062,227.133 256.753,226.366 257.366,226.059C257.366,225.752 257.673,225.368 258.287,224.908C258.901,224.448 259.362,224.217 259.669,224.217C260.282,223.603 260.896,223.297 261.51,223.297C261.51,223.91 261.433,224.985 261.28,226.519C261.126,228.054 261.05,229.128 261.05,229.742C260.743,230.049 260.436,230.51 260.129,231.123C259.822,231.43 259.669,231.891 259.669,232.505L259.669,234.807C259.669,235.421 259.822,236.034 260.129,236.648C260.436,237.262 260.743,237.723 261.05,238.029L261.05,244.936C261.05,245.549 261.971,246.931 263.812,249.079C265.654,251.228 266.268,252.916 265.654,254.144C265.347,254.144 265.731,254.527 266.805,255.295C267.879,256.062 268.416,256.599 268.416,256.906L268.416,260.129C268.723,260.743 269.337,262.508 270.258,265.424C271.179,268.339 271.946,270.565 272.56,272.099C272.56,272.713 271.639,274.248 269.797,276.703C267.956,279.159 267.035,280.694 267.035,281.308C267.649,281.308 268.646,281.077 270.028,280.617C271.409,280.157 272.406,279.926 273.02,279.926C273.327,280.233 273.788,280.847 274.401,281.768C275.015,282.689 275.476,283.303 275.783,283.61C275.783,284.837 276.397,285.451 277.624,285.451C277.624,286.065 278.085,286.525 279.006,286.832L280.847,287.753C280.847,288.06 281.001,288.214 281.308,288.214L282.228,288.214C282.535,288.521 282.842,288.674 283.149,288.674C283.149,289.288 283.533,290.899 284.3,293.508C285.068,296.117 285.758,297.882 286.372,298.803C286.679,299.724 287.139,300.721 287.753,301.796C288.367,302.87 288.674,303.56 288.674,303.867C288.674,304.788 288.904,306.169 289.365,308.011C289.825,309.853 290.285,311.848 290.746,313.996C291.206,316.145 291.59,318.063 291.897,319.751C292.204,321.44 292.357,322.591 292.357,323.204C292.664,323.818 292.741,325.046 292.587,326.888C292.434,328.729 292.357,329.804 292.357,330.11C292.357,330.417 292.587,331.031 293.048,331.952C293.508,332.873 293.892,333.333 294.199,333.333L294.199,337.017C293.892,337.324 291.974,338.244 288.444,339.779C284.914,341.314 282.996,342.388 282.689,343.002C282.689,343.309 282.459,343.923 281.998,344.843C281.538,345.764 281.154,346.225 280.847,346.225C280.233,346.532 279.159,346.915 277.624,347.376C276.09,347.836 275.169,348.066 274.862,348.066L273.02,348.987C271.486,349.908 270.718,350.061 270.718,349.448C270.104,349.141 269.644,348.834 269.337,348.527C268.723,348.22 268.109,347.452 267.495,346.225C267.188,345.918 266.728,345.381 266.114,344.613C265.5,343.846 265.04,343.309 264.733,343.002L264.733,342.081L264.733,340.239ZM29.466,332.413L31.768,332.413L31.768,330.571L29.466,330.571L29.466,332.413ZM29.466,322.284L31.768,321.823C32.996,321.823 33.61,321.209 33.61,319.982L34.07,318.6C34.07,318.293 33.993,318.063 33.84,317.91C33.686,317.756 33.61,317.526 33.61,317.219L33.61,316.759C33.61,316.145 32.996,315.454 31.768,314.687C30.54,313.92 29.773,313.382 29.466,313.076L29.466,322.284ZM37.753,308.011C36.832,308.011 36.372,308.471 36.372,309.392C36.372,310.313 36.832,310.773 37.753,310.773C38.674,310.773 39.134,310.313 39.134,309.392C39.134,308.471 38.674,308.011 37.753,308.011ZM62.615,287.753C62.615,287.446 62.769,286.986 63.076,286.372C63.382,285.758 63.536,285.298 63.536,284.991L63.996,284.53C63.996,284.223 64.073,284.07 64.227,284.07C64.38,284.07 64.457,283.917 64.457,283.61C65.071,282.996 66.068,282.305 67.449,281.538C68.831,280.77 69.828,280.233 70.442,279.926C70.442,279.619 71.286,279.236 72.974,278.775C74.662,278.315 75.813,278.085 76.427,278.085C76.734,278.085 77.118,278.008 77.578,277.855C78.039,277.701 78.422,277.624 78.729,277.624C78.729,278.545 78.422,279.312 77.808,279.926C77.808,280.847 77.348,281.308 76.427,281.308C76.12,281.614 75.046,281.998 73.204,282.459C71.363,282.919 70.442,283.303 70.442,283.61C68.907,283.61 67.68,284.07 66.759,284.991C66.452,285.298 66.068,285.605 65.608,285.912C65.147,286.219 64.764,286.525 64.457,286.832L64.457,289.134C64.764,289.441 65.147,290.209 65.608,291.436C66.068,292.664 66.452,293.432 66.759,293.738L65.838,293.738L64.457,293.738C64.457,293.432 64.303,292.894 63.996,292.127C63.689,291.36 63.536,290.669 63.536,290.055C63.229,289.748 63.076,289.441 63.076,289.134C62.769,288.828 62.615,288.367 62.615,287.753ZM64.457,255.525C65.991,254.911 66.759,253.53 66.759,251.381C66.452,251.381 66.145,251.228 65.838,250.921C65.531,250.921 65.301,250.844 65.147,250.691C64.994,250.537 64.764,250.46 64.457,250.46L64.457,255.525ZM52.947,254.144C53.254,253.837 53.56,253.453 53.867,252.993C54.174,252.532 54.635,251.995 55.249,251.381L55.249,250.46L52.947,250.46L52.947,254.144ZM82.413,244.936C81.492,244.936 81.031,245.549 81.031,246.777C81.031,248.005 81.492,248.619 82.413,248.619C83.026,248.619 83.333,248.005 83.333,246.777C83.333,245.549 83.026,244.936 82.413,244.936ZM55.249,241.252C55.249,242.173 55.709,242.634 56.63,242.634C56.937,242.94 57.551,243.094 58.471,243.094L59.392,243.094L59.392,241.252L55.249,241.252ZM121.087,241.252L122.928,241.252L122.928,239.411L121.087,239.411L121.087,241.252ZM55.249,226.059C55.249,225.752 55.402,225.445 55.709,225.138C56.323,224.524 56.63,224.217 56.63,224.217L57.09,223.297L56.63,221.915C56.323,221.915 56.016,221.762 55.709,221.455C55.402,221.148 55.249,220.841 55.249,220.534L55.249,226.059ZM52.947,217.311C52.026,217.311 51.565,217.848 51.565,218.923C51.565,219.997 52.026,220.534 52.947,220.534C54.174,220.534 54.788,219.997 54.788,218.923C54.788,217.848 54.174,217.311 52.947,217.311ZM186.004,219.153C186.004,218.232 185.543,217.772 184.622,217.772C183.702,217.772 183.241,218.232 183.241,219.153C184.162,220.074 185.083,220.074 186.004,219.153ZM214.549,219.153C214.856,218.232 214.626,217.772 213.858,217.772C213.091,217.772 212.707,218.232 212.707,219.153C213.321,219.767 213.935,219.767 214.549,219.153ZM214.549,213.168C213.628,213.168 213.168,213.858 213.168,215.239C213.168,216.621 213.628,217.311 214.549,217.311C215.47,217.311 215.93,216.621 215.93,215.239C215.93,213.858 215.47,213.168 214.549,213.168ZM159.761,208.103C159.147,208.103 158.84,208.64 158.84,209.715C158.84,210.789 159.147,211.326 159.761,211.326C161.295,211.326 162.063,210.789 162.063,209.715C162.063,208.64 161.295,208.103 159.761,208.103ZM162.523,206.722C162.83,207.029 163.29,207.336 163.904,207.643C164.518,207.95 165.132,208.103 165.746,208.103C166.053,208.41 166.59,208.64 167.357,208.794C168.125,208.947 168.815,209.177 169.429,209.484C170.35,209.791 171.271,209.945 172.192,209.945L186.004,209.945C186.311,209.945 187.999,209.638 191.068,209.024C194.138,208.41 196.133,208.103 197.053,208.103C197.667,208.103 199.586,208.41 202.808,209.024C206.031,209.638 207.796,209.945 208.103,209.945L212.247,209.945C212.247,209.331 212.17,207.719 212.017,205.11C211.863,202.502 211.479,200.89 210.866,200.276C210.866,199.355 210.021,197.591 208.333,194.982C206.645,192.373 205.341,190.608 204.42,189.687C204.42,189.38 203.959,188.766 203.039,187.845C202.118,186.924 201.351,186.311 200.737,186.004C200.43,185.39 199.893,184.239 199.125,182.551C198.358,180.862 197.667,179.711 197.053,179.098C196.44,178.791 195.979,177.947 195.672,176.565C195.365,175.184 195.212,174.34 195.212,174.033C194.905,173.726 194.138,172.882 192.91,171.501C191.682,170.12 191.068,169.276 191.068,168.969C190.761,168.662 190.224,167.587 189.457,165.746C188.689,163.904 187.769,161.909 186.694,159.761C185.62,157.612 184.546,155.387 183.471,153.085C182.397,150.783 181.553,149.018 180.939,147.79C180.939,147.176 180.095,145.104 178.407,141.575C176.719,138.045 175.721,135.513 175.414,133.978C175.107,133.364 174.8,132.597 174.494,131.676C173.88,129.834 173.573,128.913 173.573,128.913C173.573,128.913 173.266,128.3 172.652,127.072C172.345,126.458 172.192,125.844 172.192,125.23C172.192,124.616 171.885,123.082 171.271,120.626C170.657,118.171 170.35,116.789 170.35,116.483C170.043,116.176 169.583,115.408 168.969,114.18C168.662,113.567 168.201,113.106 167.587,112.799L167.587,109.576C167.281,108.963 166.743,108.349 165.976,107.735C165.209,107.121 164.518,106.661 163.904,106.354C163.904,106.354 163.597,106.2 162.983,105.893C162.676,105.893 162.523,106.047 162.523,106.354C162.216,106.967 161.679,108.272 160.912,110.267C160.144,112.262 159.761,113.567 159.761,114.18L159.761,116.483C159.761,116.789 160.221,117.327 161.142,118.094C162.063,118.861 162.523,119.398 162.523,119.705C162.523,120.319 162.446,121.317 162.293,122.698C162.139,124.079 162.216,124.923 162.523,125.23C162.523,125.844 162.676,126.458 162.983,127.072L163.904,128.913L163.904,141.344C163.597,141.037 162.753,140.654 161.372,140.193C159.991,139.733 158.993,139.349 158.379,139.042L155.617,139.042L155.617,140.884C155.617,141.498 155.77,141.958 156.077,142.265C156.691,142.879 157.382,143.8 158.149,145.028C158.917,146.255 159.454,147.176 159.761,147.79L159.3,147.79L158.379,147.79C157.766,147.483 156.384,146.869 154.236,145.948C152.087,145.028 150.706,144.414 150.092,144.107L149.171,144.107L148.25,144.107L147.33,145.028C147.023,145.335 146.869,145.641 146.869,145.948L145.488,145.948L144.567,145.948C143.953,145.641 143.493,145.028 143.186,144.107C142.879,143.186 142.726,142.572 142.726,142.265L136.74,142.265L138.582,147.79C138.889,148.097 140.27,148.634 142.726,149.401C145.181,150.169 146.562,150.706 146.869,151.013L146.869,156.538C146.869,157.152 147.253,158.072 148.02,159.3C148.788,160.528 149.478,161.295 150.092,161.602C150.092,161.602 149.785,161.909 149.171,162.523L148.25,163.444C148.25,164.058 147.79,165.823 146.869,168.738C145.948,171.654 145.181,173.419 144.567,174.033L143.646,174.954L142.726,175.875C142.419,176.489 142.112,176.949 141.805,177.256C141.498,177.87 141.191,178.254 140.884,178.407C140.577,178.56 140.424,178.791 140.424,179.098C140.117,179.711 139.733,180.632 139.273,181.86C138.812,183.088 138.582,183.855 138.582,184.162C137.661,184.162 137.201,183.548 137.201,182.32C136.894,181.707 136.817,180.325 136.971,178.177C137.124,176.028 137.201,174.647 137.201,174.033C137.201,173.419 136.817,172.729 136.05,171.961C135.282,171.194 134.745,170.81 134.438,170.81C134.131,171.117 133.594,171.654 132.827,172.422C132.06,173.189 131.369,173.726 130.755,174.033C130.448,174.34 130.218,174.877 130.064,175.645C129.911,176.412 129.834,176.949 129.834,177.256C129.527,177.87 129.374,178.637 129.374,179.558L129.374,183.702C129.374,184.316 129.451,185.39 129.604,186.924C129.758,188.459 129.834,189.38 129.834,189.687C129.834,190.301 129.911,191.682 130.064,193.831C130.218,195.979 130.448,197.36 130.755,197.974L134.438,191.068L136.28,191.068C136.28,191.375 136.433,191.912 136.74,192.68C137.047,193.447 137.201,194.138 137.201,194.751C136.894,195.365 136.357,196.516 135.589,198.204C134.822,199.893 134.438,200.89 134.438,201.197L134.438,203.499C135.359,204.42 136.126,205.034 136.74,205.341C137.354,205.955 137.968,206.415 138.582,206.722L156.077,206.722C156.077,207.029 156.384,207.336 156.998,207.643C157.612,207.95 158.072,208.103 158.379,208.103C158.993,208.103 159.607,207.95 160.221,207.643C161.449,207.029 162.216,206.722 162.523,206.722ZM123.849,198.895C123.235,199.509 122.928,199.969 122.928,200.276L122.928,208.103C124.156,208.103 124.77,207.643 124.77,206.722C124.77,206.108 125.077,204.957 125.691,203.269C126.304,201.581 126.611,200.583 126.611,200.276C126.611,199.969 126.304,199.509 125.691,198.895L124.77,197.974L123.849,198.895ZM101.75,197.974C101.75,198.281 101.98,199.125 102.44,200.506C102.901,201.888 103.438,202.885 104.052,203.499C104.052,203.499 104.359,203.806 104.972,204.42C105.279,204.727 105.586,204.88 105.893,204.88L113.26,204.88C113.567,204.573 113.874,204.113 114.18,203.499C114.487,202.885 114.794,202.502 115.101,202.348C115.408,202.195 115.562,201.811 115.562,201.197C115.562,200.89 115.792,199.509 116.252,197.053C116.713,194.598 116.943,193.063 116.943,192.449L119.245,189.687L119.245,186.924L119.245,184.162C118.938,183.855 118.554,183.088 118.094,181.86C117.634,180.632 117.25,179.711 116.943,179.098C116.943,177.87 116.483,177.256 115.562,177.256C115.562,177.563 115.331,178.177 114.871,179.098C114.411,180.018 113.874,180.479 113.26,180.479C112.646,181.4 110.881,183.241 107.965,186.004C105.049,188.766 102.977,190.454 101.75,191.068L101.75,197.974ZM73.204,197.974C73.204,198.281 72.744,198.665 71.823,199.125C70.902,199.586 70.442,199.969 70.442,200.276C70.135,200.276 69.982,200.43 69.982,200.737C69.982,201.044 69.828,201.197 69.521,201.197L73.204,201.197L73.204,197.974ZM104.052,180.479L106.354,180.479C106.047,180.479 105.893,180.325 105.893,180.018L105.893,179.098L104.972,178.177L104.052,177.256L104.052,180.479ZM144.567,130.295L146.869,128.913L144.567,128.913L144.567,130.295ZM121.087,126.611C120.166,126.611 119.705,127.225 119.705,128.453C119.705,129.681 120.166,130.295 121.087,130.295C122.007,130.295 122.468,129.681 122.468,128.453C122.468,127.225 122.007,126.611 121.087,126.611ZM105.893,122.928C104.972,122.928 104.512,123.542 104.512,124.77C104.512,125.998 104.972,126.611 105.893,126.611C106.507,126.611 106.814,125.998 106.814,124.77C106.814,123.542 106.507,122.928 105.893,122.928ZM137.201,72.744L137.201,71.363L134.438,71.363L137.201,72.744Z" style="fill:rgb(243,247,243);fill-rule:nonzero;"/>
    </g>
</svg>
